<?xml version="1.0" encoding="UTF-8"?>
<svg xmlns="http://www.w3.org/2000/svg" width="256" height="256" viewBox="0 0 256 256">
  <!-- Silverletter setup icon. -->
  <rect x="30" y="30" width="196" height="148" rx="14" fill="#252a34"/>
  <rect x="42" y="42" width="172" height="124" rx="5" fill="#87a2ff"/>

  <!-- Simple Tux silhouette on the screen. -->
  <ellipse cx="128" cy="101" rx="37" ry="52" fill="#17191f"/>
  <circle cx="128" cy="76" r="29" fill="#17191f"/>
  <ellipse cx="128" cy="112" rx="25" ry="35" fill="#f4f5f7"/>
  <ellipse cx="117" cy="72" rx="7" ry="10" fill="#f4f5f7"/>
  <ellipse cx="139" cy="72" rx="7" ry="10" fill="#f4f5f7"/>
  <circle cx="119" cy="74" r="3" fill="#17191f"/>
  <circle cx="137" cy="74" r="3" fill="#17191f"/>
  <path d="M118 84 L128 78 L138 84 L128 91 Z" fill="#f2a23a"/>
  <path d="M104 145 C88 145 83 154 80 160 C95 161 106 158 115 153 Z" fill="#f2a23a"/>
  <path d="M152 145 C168 145 173 154 176 160 C161 161 150 158 141 153 Z" fill="#f2a23a"/>

  <!-- Laptop base. -->
  <path d="M19 178 H237 L250 207 Q251 213 243 214 H13 Q5 213 6 207 Z" fill="#343a46"/>
  <path d="M105 181 H151 L145 190 H111 Z" fill="#17191f" opacity="0.65"/>
  <rect x="14" y="207" width="228" height="7" rx="3.5" fill="#17191f"/>
</svg>
